<?xml version="1.0" standalone="no"?>
<!DOCTYPE svg PUBLIC "-//W3C//DTD SVG 20010904//EN"
 "http://www.w3.org/TR/2001/REC-SVG-20010904/DTD/svg10.dtd">
<svg version="1.0" xmlns="http://www.w3.org/2000/svg"
 width="700.000000pt" height="700.000000pt" viewBox="0 0 700.000000 700.000000"
 preserveAspectRatio="xMidYMid meet">
<metadata>
Created by potrace 1.14, written by Peter Selinger 2001-2017
</metadata>
<g transform="translate(0.000000,700.000000) scale(0.100000,-0.100000)"
fill="#000000" stroke="none">
<path d="M3278 6995 c-1 -1 -42 -5 -89 -9 -47 -4 -95 -8 -105 -10 -10 -2 -41
-7 -69 -10 -415 -54 -866 -208 -1245 -424 -86 -49 -301 -187 -339 -218 -9 -7
-52 -41 -96 -75 -432 -336 -819 -832 -1029 -1319 -16 -36 -35 -78 -42 -95 -54
-120 -153 -432 -180 -570 -2 -11 -10 -54 -19 -95 -29 -147 -36 -200 -52 -370
-15 -165 -8 -592 12 -711 2 -13 6 -46 9 -74 47 -409 239 -952 466 -1318 30
-48 60 -95 65 -105 24 -42 133 -191 208 -285 163 -202 344 -382 557 -552 92
-74 370 -265 386 -265 4 0 15 -6 23 -14 29 -25 305 -161 431 -213 279 -113
566 -191 839 -229 25 -3 57 -8 71 -10 163 -25 682 -25 842 1 13 2 46 7 73 10
71 10 87 13 115 18 14 3 43 8 65 12 22 4 76 16 120 27 44 10 87 21 96 23 223
51 591 200 823 334 49 28 91 51 93 51 9 0 267 179 343 239 158 123 331 285
460 430 36 41 70 79 76 85 65 68 263 353 352 508 47 80 182 351 182 364 0 3 8
24 19 47 53 118 147 417 177 562 17 81 54 301 59 350 4 33 9 71 11 85 9 47 11
525 3 605 -15 165 -21 220 -24 225 -2 3 -6 30 -10 60 -4 30 -22 123 -40 205
-269 1195 -1141 2163 -2300 2553 -168 57 -420 119 -555 137 -19 3 -46 7 -60
10 -13 2 -52 7 -86 11 -33 3 -74 8 -90 10 -33 5 -540 14 -546 9z m1782 -1777
c146 -69 220 -231 175 -384 -9 -32 -20 -63 -24 -69 -5 -5 -57 -104 -116 -220
-59 -115 -129 -250 -155 -300 -26 -49 -82 -157 -125 -240 -43 -82 -97 -186
-120 -230 -23 -44 -87 -165 -141 -270 -54 -104 -124 -239 -155 -300 -32 -60
-73 -139 -91 -175 -18 -36 -58 -111 -87 -168 l-53 -103 49 -72 c104 -153 155
-314 155 -492 0 -181 -48 -344 -141 -485 -205 -306 -550 -448 -921 -377 -96
18 -234 82 -325 149 -192 143 -301 322 -351 578 -8 39 -8 189 -1 249 15 118
75 270 149 380 43 63 161 178 228 222 51 34 176 101 182 98 2 -1 35 8 73 19
98 28 133 33 234 33 l87 0 16 32 c14 30 58 116 215 417 36 69 97 186 136 260
38 74 95 185 127 245 32 61 90 173 130 250 40 77 98 190 130 250 32 61 90 173
130 250 155 300 175 336 203 371 35 42 96 82 152 101 63 20 170 12 235 -19z"/>
</g>
</svg>
